<?xml version="1.0" encoding="UTF-8"?>
<svg version="1.1" xmlns="http://www.w3.org/2000/svg" width="64" height="64">
<path d="M0 0 C7.76675969 5.2863574 13.38019908 11.09474305 15.95703125 20.33203125 C16.97849667 31.79382348 16.07180915 40.5604769 8.58203125 49.64453125 C3.05238769 55.57504449 -2.65763398 58.94121385 -10.8125 59.66796875 C-22.2900419 59.92562211 -29.79553736 58.0735478 -38.3203125 50.125 C-45.07902557 43.09042109 -46.45687681 35.78457741 -46.40649414 26.37695312 C-46.15072802 16.47368908 -42.06373178 10.07747024 -35.04296875 3.33203125 C-25.66852822 -3.93794304 -10.69212687 -5.78560593 0 0 Z " fill="#FF0202" transform="translate(47.04296875,3.66796875)"/>
<path d="M0 0 C2.90262776 1.54856687 5.17520144 2.80020144 7.5 5.125 C7.5 6.115 7.5 7.105 7.5 8.125 C3.49561138 7.50894021 0.79820589 5.37058699 -2.5 3.125 C-8.24235207 1.21088264 -15.37672605 0.83127911 -21.02734375 3.171875 C-22.9595447 4.39524245 -24.72683213 5.68375518 -26.5 7.125 C-27.49 7.785 -28.48 8.445 -29.5 9.125 C-30.16 8.135 -30.82 7.145 -31.5 6.125 C-21.21403517 -2.13048865 -12.47791561 -6.11193711 0 0 Z " fill="#FFE0E0" transform="translate(43.5,17.875)"/>
<path d="M0 0 C1.9375 1.0625 1.9375 1.0625 3 3 C2.875 6.5625 2.875 6.5625 2 10 C-1 12 -1 12 -4.0625 11.8125 C-7 11 -7 11 -9 8 C-8.75 4.375 -8.75 4.375 -8 1 C-5.20129973 -0.39935013 -3.09501208 -0.25265405 0 0 Z " fill="#FFF4F4" transform="translate(35,37)"/>
<path d="M0 0 C2.015625 1.0703125 2.015625 1.0703125 5.015625 3.0703125 C4.685625 4.3903125 4.355625 5.7103125 4.015625 7.0703125 C3.0875 6.4309375 2.159375 5.7915625 1.203125 5.1328125 C-4.32950717 1.55287404 -9.53851643 1.36025369 -15.984375 2.0703125 C-18.34352215 3.1529672 -19.93490751 4.4307385 -21.984375 6.0703125 C-22.974375 6.0703125 -23.964375 6.0703125 -24.984375 6.0703125 C-23.47802035 1.85251947 -20.74425078 0.2955451 -16.984375 -1.9296875 C-10.55938407 -4.07135114 -5.89977378 -2.78485825 0 0 Z " fill="#FFE4E4" transform="translate(41.984375,24.9296875)"/>
<path d="M0 0 C2.77789701 1.76775264 3.69633868 2.69438218 4.75 5.75 C1.75 5.75 1.75 5.75 -0.16015625 4.76953125 C-3.72071602 3.0325105 -7.37575143 3.27433603 -11.25 3.75 C-14.22984167 5.08170309 -14.22984167 5.08170309 -16.25 6.75 C-16.25 5.43 -16.25 4.11 -16.25 2.75 C-11.39638831 -1.76887985 -6.09321235 -2.34354321 0 0 Z " fill="#FFE3E3" transform="translate(38.25,30.25)"/>
<path d="M0 0 C0.66 0.33 1.32 0.66 2 1 C0.6875 3.5 0.6875 3.5 -1 6 C-1.99 6 -2.98 6 -4 6 C-2.84826645 3.53199953 -1.95216435 1.95216435 0 0 Z " fill="#FFEDED" transform="translate(21,25)"/>
</svg>
